<svg xmlns="http://www.w3.org/2000/svg" width="200" height="40" viewBox="0,0,200,40"><path fill="#222" d="M25.47 24.28L25.43 24.25L25.30 24.11Q23.48 24.16 22.26 25.49L22.21 25.44L22.36 25.59Q21.04 26.82 20.89 28.72L20.86 28.70L20.93 28.76Q20.74 30.89 21.95 31.90L21.90 31.85L22.00 31.95Q23.16 32.90 25.29 32.82L25.25 32.79L25.39 32.92Q27.53 32.59 28.49 31.64L28.49 31.65L28.50 31.66Q29.69 30.37 29.58 28.54L29.50 28.46L29.48 28.45Q29.30 26.52 28.22 25.32L28.22 25.32L28.22 25.32Q27.22 24.20 25.39 24.20ZM25.26 14.67L25.31 14.72L25.41 14.82Q23.88 14.59 22.55 15.08L22.56 15.09L22.53 15.06Q21.36 15.99 21.59 17.85L21.50 17.76L21.43 17.69Q21.98 21.48 25.33 21.48L25.38 21.53L25.32 21.47Q26.95 21.73 27.94 20.59L27.90 20.55L27.84 20.49Q28.88 19.40 28.92 17.83L28.96 17.88L28.92 17.83Q29.01 16.10 28.29 15.49L28.40 15.61L28.36 15.56Q26.70 14.74 25.41 14.82ZM25.14 35.37L25.04 35.27L22.04 35.32L22.02 35.30Q20.59 35.39 19.26 34.52L19.24 34.50L19.18 34.44Q17.71 33.20 17.86 30.34L17.91 30.39L17.89 30.37Q18.45 23.62 22.07 22.63L22.11 22.68L21.95 22.51Q19.68 21.61 18.35 16.25L18.41 16.31L18.41 16.31Q18.16 15.00 18.24 14.20L18.17 14.13L18.12 14.08Q18.48 12.00 22.17 11.96L22.18 11.97L22.13 11.92Q26.41 11.90 27.86 12.09L27.72 11.95L27.87 12.11Q31.61 12.53 32.06 14.54L32.05 14.53L32.03 14.51Q32.30 15.28 32.30 15.66L32.27 15.63L32.28 15.63Q32.29 16.33 32.10 16.94L31.97 16.81L31.95 16.79Q31.49 21.16 28.56 22.69L28.44 22.57L28.52 22.66Q32.06 23.49 32.56 28.78L32.49 28.72L32.56 28.78Q32.49 28.87 32.53 30.16L32.58 30.22L32.46 30.10Q32.65 32.95 31.05 34.02L30.96 33.92L31.05 34.01Q29.55 34.76 24.98 35.21ZM27.44 37.71L27.39 37.66L30.78 37.78L30.77 37.77Q32.51 37.87 34.03 37.15L34.03 37.15L33.91 37.03Q35.02 36.27 35.10 34.41L35.18 34.48L35.14 34.45Q35.20 33.37 34.82 31.43L34.74 31.35L34.78 31.39Q33.93 26.81 31.84 24.94L31.85 24.96L31.70 24.61L31.33 24.16L31.37 24.09L31.26 23.98Q32.85 22.57 33.77 18.42L33.87 18.52L33.76 18.42Q33.79 18.06 33.86 17.22L33.99 17.35L33.86 17.22Q34.07 16.66 33.99 16.06L33.82 15.89L33.95 16.01Q33.73 14.50 32.55 14.00L32.50 13.95L32.57 13.99L32.44 13.94L32.48 13.97Q32.17 13.21 30.99 12.41L30.93 12.34L31.00 12.37L30.93 12.30Q29.02 11.70 24.95 11.51L24.88 11.44L24.97 11.53Q23.31 11.31 21.94 11.43L22.10 11.59L22.00 11.49Q21.20 11.52 19.90 11.67L19.92 11.69L20.01 11.78Q18.01 12.10 17.78 13.74L17.71 13.67L17.73 13.68Q17.73 14.22 17.76 15.02L17.68 14.93L17.68 14.94Q17.85 15.52 18.42 17.88L18.43 17.89L18.41 17.87Q19.30 21.20 21.05 22.53L21.02 22.50L21.08 22.56L21.03 22.51Q18.37 23.92 17.83 29.10L17.85 29.11L17.77 29.04Q17.64 31.30 17.64 32.22L17.49 32.07L17.55 32.12Q17.66 33.95 18.84 34.86L18.82 34.85L18.90 34.92Q19.03 35.01 19.29 35.20L19.11 35.01L19.26 35.17Q20.17 37.33 27.29 37.56ZM26.93 26.47L27.03 26.57L26.91 26.45Q27.92 26.47 28.80 26.92L28.87 27.00L28.76 26.89Q29.19 27.93 29.15 28.46L29.04 28.35L29.18 28.49Q29.09 28.67 29.09 28.97L29.13 29.01L29.21 29.09Q29.26 31.50 26.98 32.34L26.89 32.25L26.89 32.25Q26.09 32.55 25.29 32.44L25.34 32.49L25.38 32.53Q24.22 32.59 23.07 32.13L22.96 32.02L22.99 32.05Q22.77 31.44 22.84 30.45L22.79 30.40L22.92 30.53Q22.93 28.78 24.12 27.56L24.23 27.67L24.16 27.60Q25.41 26.43 27.01 26.54ZM27.16 16.99L27.15 16.98L27.15 16.98Q28.07 16.98 28.60 17.14L28.59 17.12L28.50 17.84L28.64 17.98Q28.64 19.38 27.73 20.39L27.67 20.34L27.56 20.23Q26.81 21.39 25.44 21.20L25.42 21.19L25.38 21.15Q24.42 21.18 24.01 20.95L23.97 20.92L23.95 20.89Q23.95 20.67 23.84 19.99L23.75 19.90L23.83 19.98Q23.50 18.51 24.72 17.67L24.68 17.63L24.71 17.66Q25.77 16.97 27.18 17.01Z"/><path fill="#111" d="M46.98 10.83L47.03 10.88L46.99 10.84Q48.94 15.75 49.51 20.93L49.53 20.95L49.46 20.88Q53.13 16.71 59.03 11.88L59.01 11.86L59.13 11.98Q62.18 11.53 64.81 10.73L64.86 10.78L58.42 16.52L58.40 16.50Q54.89 19.35 52.04 22.21L52.06 22.23L52.11 22.27Q60.10 31.45 65.16 36.17L65.19 36.20L65.15 36.15Q62.02 35.19 59.69 35.04L59.63 34.98L59.73 35.08Q53.87 29.60 49.57 23.77L49.57 23.78L49.65 23.85Q49.81 30.52 47.94 35.85L47.77 35.67L47.95 35.86Q47.65 35.82 47.16 36.02L47.06 35.92L47.16 36.21L47.19 36.24Q46.89 36.16 44.34 37.08L44.29 37.03L44.31 37.05Q47.38 30.61 47.04 23.14L47.02 23.13L46.96 23.06Q46.65 15.75 43.11 9.24L43.19 9.32L43.54 9.40L43.96 9.71L44.08 9.79L44.11 9.82Q44.77 10.14 46.98 10.83ZM47.30 10.58L47.38 10.66L47.35 10.62Q44.99 9.98 42.37 8.46L42.31 8.40L42.41 8.50Q46.62 15.72 46.62 24.67L46.64 24.69L46.72 24.77Q46.64 31.69 43.67 37.74L43.70 37.78L45.63 36.81L45.71 36.89Q45.29 37.88 44.61 39.18L44.71 39.28L44.56 39.13Q46.95 38.48 48.89 38.06L48.80 37.96L48.85 37.78L49.02 37.95Q49.25 37.88 49.82 37.73L49.73 37.63L49.85 37.76Q51.36 31.69 51.47 26.89L51.52 26.94L51.47 26.89Q53.70 29.54 55.53 31.40L55.45 31.33L55.45 31.32Q56.59 32.39 59.59 35.36L59.58 35.35L59.70 35.46L59.62 35.38Q60.74 36.31 62.60 37.91L62.44 37.75L62.50 37.81Q66.42 38.57 69.89 40.28L69.94 40.33L69.93 40.33Q60.66 31.77 54.41 24.35L54.38 24.31L54.36 24.30Q58.66 19.92 67.42 11.32L67.48 11.38L67.41 11.31Q64.98 12.57 62.96 12.95L62.91 12.90L62.90 12.89Q64.06 11.84 66.38 9.82L66.43 9.87L66.51 9.95Q62.39 11.36 59.04 11.55L58.97 11.48L58.91 11.42Q55.98 13.62 51.11 18.31L51.16 18.36L51.29 18.49Q50.77 15.76 50.20 13.21L50.27 13.28L50.18 13.19Q49.04 13.08 48.05 12.74L48.15 12.84L48.03 12.72Q47.94 12.09 47.37 10.65Z"/><path fill="#222" d="M168.45 35.14L168.39 35.08L166.37 35.34L166.41 35.39Q165.89 35.33 164.92 35.39L164.87 35.33L164.99 35.45Q164.00 35.49 163.51 35.49L163.38 35.37L163.39 35.38Q161.71 35.33 160.68 34.49L160.83 34.64L160.71 34.52Q161.61 33.52 163.25 31.39L163.24 31.38L163.28 31.42Q164.39 32.83 166.59 32.60L166.75 32.76L166.73 32.73Q167.54 32.52 168.18 31.87L168.25 31.94L168.28 31.97Q168.87 31.26 168.76 30.39L168.86 30.49L168.69 30.32Q168.69 25.83 168.77 21.26L168.75 21.24L168.81 21.30Q168.72 16.57 169.26 11.97L169.29 12.00L169.38 12.09Q171.27 11.85 173.40 10.82L173.42 10.84L173.42 10.84Q171.49 17.52 171.49 24.75L171.58 24.84L171.40 24.66Q171.52 28.31 171.97 31.82L172.00 31.84L171.93 31.77Q172.06 32.17 172.06 32.51L172.03 32.48L171.94 32.39Q172.00 33.03 171.78 33.56L171.81 33.60L171.84 33.63Q171.22 34.83 168.40 35.09ZM173.39 37.99L173.41 38.01L173.81 38.07L173.97 37.81L174.32 37.78L174.34 37.80Q174.59 37.47 174.66 37.36L174.54 37.24L174.53 37.23Q174.86 36.19 174.60 35.20L174.63 35.23L174.51 35.11Q173.17 29.32 173.44 22.96L173.48 23.00L173.40 22.92Q173.78 16.94 175.56 11.04L175.56 11.04L175.53 11.01Q174.59 11.58 173.33 12.31L173.44 12.42L173.35 12.33Q173.46 11.49 173.88 9.96L173.98 10.07L173.94 10.03Q171.47 11.40 168.80 11.70L168.85 11.75L168.72 11.62Q168.42 16.08 168.34 21.03L168.45 21.13L168.47 21.16Q168.27 26.93 168.35 30.36L168.42 30.43L168.30 30.31Q168.46 32.18 166.70 32.33L166.62 32.25L166.68 32.31Q164.89 32.35 163.22 30.71L163.29 30.79L163.35 30.84Q161.24 33.31 160.29 34.87L160.34 34.91L160.20 34.77Q160.82 35.40 161.85 35.62L161.93 35.70L161.87 35.65Q161.82 35.82 161.55 36.05L161.63 36.12L161.67 36.16Q163.02 37.02 165.00 37.29L164.95 37.24L164.95 37.24Q165.33 37.27 168.62 37.58L168.70 37.66L168.72 37.67Q172.07 38.04 173.44 38.04Z"/><path fill="#222" d="M84.88 34.85L84.81 34.78L84.85 34.82Q83.00 34.88 80.99 35.07L80.85 34.93L80.89 34.97Q81.65 29.83 81.65 25.00L81.50 24.85L81.59 24.94Q81.56 20.00 80.92 14.78L80.90 14.77L80.91 14.78Q76.25 14.31 73.06 12.63L73.15 12.73L72.52 11.07L72.40 10.95Q72.31 10.56 71.70 9.34L71.55 9.18L71.69 9.33Q76.72 11.95 82.73 12.14L82.64 12.06L82.70 12.12Q88.61 12.31 94.06 10.26L94.07 10.28L93.96 10.17Q93.30 11.64 92.66 13.47L92.73 13.54L92.72 13.53Q88.99 14.71 84.73 14.90L84.83 15.01L84.87 15.05Q84.60 19.99 84.60 24.94L84.50 24.84L84.49 24.83Q84.58 29.87 84.89 34.86ZM94.77 9.60L94.68 9.51L94.74 9.57Q88.91 11.85 82.70 11.66L82.60 11.55L82.64 11.60Q75.95 11.38 70.85 8.41L70.88 8.44L70.97 8.53Q71.58 9.67 72.87 12.94L73.04 13.12L73.00 13.07Q73.58 13.32 74.84 13.89L74.91 13.95L74.78 13.83Q75.11 14.61 75.45 16.13L75.39 16.07L75.43 16.11Q77.69 16.92 80.73 17.15L80.83 17.25L80.78 17.20Q81.24 20.97 81.24 24.74L81.22 24.72L81.22 24.72Q81.14 30.01 80.34 35.38L80.29 35.32L80.29 35.32Q81.96 35.20 82.49 35.20L82.51 35.22L82.53 35.24Q82.52 35.54 82.46 36.20L82.48 36.22L82.55 36.29Q82.51 36.98 82.51 37.32L82.51 37.31L82.40 37.21Q83.67 37.22 85.19 37.30L85.13 37.23L85.21 37.31Q86.10 37.33 87.93 37.48L87.89 37.44L88.01 37.57Q86.66 32.52 86.55 27.34L86.58 27.37L86.68 27.48Q86.50 22.12 87.03 17.21L87.03 17.21L86.98 17.16Q90.99 16.67 94.15 15.46L94.02 15.33L94.11 15.42Q94.68 12.90 95.70 10.84L95.89 11.02L95.89 11.03Q94.42 11.57 93.62 11.88L93.66 11.92L93.73 11.99Q94.21 10.76 94.79 9.62Z"/><path d="M19 14 C101 21,92 27,198 14" stroke="#222" fill="none"/><path fill="#222" d="M130.45 9.35L130.43 9.32L130.44 9.34Q134.23 11.86 138.98 12.09L138.94 12.05L138.90 12.00Q143.65 12.30 147.91 10.55L147.76 10.40L147.76 10.40Q147.60 11.04 146.84 13.82L146.78 13.76L146.90 13.88Q144.16 14.91 141.19 15.06L141.11 14.98L141.11 14.98Q138.25 15.25 135.36 14.52L135.33 14.49L135.34 14.50Q135.96 18.05 136.15 21.70L136.17 21.73L136.22 21.77Q138.11 21.87 139.71 21.84L139.84 21.97L139.79 21.92Q141.03 21.94 143.42 21.83L143.47 21.87L143.32 21.72Q143.26 22.34 143.26 23.03L143.31 23.08L143.33 24.43L143.40 24.50Q140.96 24.46 136.17 24.54L136.20 24.57L136.22 24.60Q136.14 28.63 135.57 32.63L135.58 32.63L135.57 32.63Q138.20 31.98 140.95 32.10L140.91 32.06L141.03 32.19Q143.63 32.16 146.22 33.00L146.22 33.00L146.29 33.06Q146.31 33.81 146.58 34.57L146.51 34.50L146.97 36.03L146.98 36.04Q143.94 34.91 140.52 34.91L140.43 34.82L140.42 34.81Q135.55 34.81 131.28 37.05L131.34 37.11L131.27 37.04Q133.61 30.24 133.34 23.12L133.43 23.21L133.25 23.04Q132.98 15.87 130.32 9.21ZM130.70 37.69L130.83 37.82L130.72 37.71Q132.04 37.05 132.80 36.71L132.77 36.68L132.71 36.61Q132.58 37.44 132.01 38.97L131.95 38.90L132.10 39.06Q136.60 37.04 141.66 37.31L141.68 37.33L141.71 37.36Q146.87 37.64 150.87 40.34L150.88 40.36L150.81 40.29Q149.60 37.70 148.91 35.76L148.88 35.73L148.96 35.81Q147.96 35.19 146.97 34.85L146.92 34.80L146.89 34.77Q146.63 33.52 146.48 32.72L146.37 32.61L146.45 32.69Q143.40 31.74 140.24 31.74L140.13 31.63L140.16 31.66Q139.11 31.74 137.96 31.86L137.85 31.74L137.99 31.89Q138.05 30.57 138.09 29.36L137.99 29.26L138.06 26.74L138.18 26.86Q139.98 26.76 141.77 26.79L141.79 26.81L141.80 26.83Q143.66 26.90 145.45 27.05L145.45 27.05L145.29 26.89Q145.23 25.96 145.23 25.00L145.27 25.04L145.33 23.19L144.58 23.32L144.51 23.26Q144.13 23.36 143.67 23.36L143.69 23.38L143.61 23.31Q143.68 22.69 143.83 21.39L143.87 21.43L143.80 21.36Q142.16 21.55 140.98 21.59L141.03 21.64L141.00 21.61Q140.10 21.66 138.28 21.59L138.22 21.54L138.23 21.55Q138.05 20.02 137.86 17.21L137.85 17.20L138.01 17.36Q138.92 17.36 139.91 17.36L140.06 17.50L139.88 17.33Q144.68 17.41 148.38 15.51L148.41 15.54L148.41 15.54Q148.98 13.18 149.86 10.98L149.86 10.98L149.92 11.04Q148.40 11.69 147.57 12.03L147.61 12.07L147.61 12.07Q147.99 11.39 148.45 9.83L148.46 9.85L148.40 9.79Q143.74 11.90 138.87 11.59L138.86 11.59L138.85 11.58Q133.52 11.24 129.68 8.38L129.67 8.37L129.86 8.56Q132.68 15.46 132.99 23.08L132.89 22.98L133.04 23.13Q133.30 31.00 130.78 37.77Z"/><path d="M4 30 C100 28,81 31,194 25" stroke="#666" fill="none"/><path fill="#333" d="M108.25 21.92L108.19 21.86L108.22 21.89Q109.89 21.92 111.72 21.92L111.86 22.07L111.83 22.04Q113.66 22.07 115.48 21.92L115.44 21.88L115.39 21.83Q115.25 22.45 115.25 23.17L115.26 23.18L115.34 24.60L115.26 24.51Q112.96 24.58 108.20 24.69L108.07 24.56L108.09 24.58Q108.11 30.54 106.97 35.53L107.05 35.61L107.01 35.57Q104.75 36.20 103.26 37.00L103.33 37.06L103.23 36.97Q105.65 30.25 105.39 23.13L105.34 23.08L105.41 23.16Q105.06 15.91 102.39 9.25L102.44 9.30L102.37 9.23Q106.11 11.83 110.87 12.06L110.98 12.16L110.81 11.99Q115.52 12.21 119.67 10.46L119.75 10.54L119.63 10.42Q119.48 11.37 119.25 12.17L119.20 12.13L118.69 13.70L118.74 13.76Q116.00 14.82 113.03 14.98L113.04 14.99L112.96 14.91Q110.17 15.20 107.31 14.47L107.32 14.49L107.33 14.49Q107.99 17.86 108.18 21.85ZM120.25 9.70L120.33 9.79L120.42 9.88Q115.64 11.83 110.76 11.53L110.78 11.54L110.92 11.68Q105.48 11.27 101.75 8.42L101.75 8.42L101.79 8.45Q104.78 15.53 105.09 23.14L105.06 23.11L104.96 23.01Q105.27 30.93 102.76 37.71L102.76 37.72L102.74 37.70Q103.55 37.43 104.92 36.79L104.85 36.72L104.82 36.69Q104.68 37.50 104.11 39.02L104.01 38.92L104.12 39.03Q106.36 37.88 109.25 37.39L109.23 37.36L109.35 37.49Q109.98 32.63 110.17 26.92L110.09 26.85L110.01 26.77Q111.88 26.81 113.71 26.81L113.80 26.90L113.73 26.83Q115.56 26.88 117.39 27.07L117.26 26.94L117.26 26.94Q117.30 26.13 117.30 25.22L117.16 25.08L117.26 23.28L117.29 23.31Q116.54 23.43 115.70 23.43L115.60 23.33L115.68 23.41Q115.52 22.38 115.60 21.35L115.66 21.42L115.72 21.48Q114.30 21.62 112.89 21.62L112.89 21.61L112.92 21.64Q111.43 21.56 110.06 21.52L110.05 21.51L110.08 19.41L110.04 19.37Q109.98 18.24 109.86 17.18L109.86 17.17L109.96 17.28Q110.81 17.21 111.80 17.21L111.81 17.22L111.85 17.26Q116.66 17.32 120.28 15.41L120.23 15.36L120.25 15.38Q120.74 13.54 121.65 10.92L121.63 10.90L121.75 11.02Q120.43 11.83 119.63 12.17L119.55 12.10L119.56 12.10Q119.85 11.37 120.35 9.81Z"/></svg>